<svg width="358" height="358" viewBox="0 0 358 358" fill="none" xmlns="http://www.w3.org/2000/svg">
<path d="M325.573 136.19H264.283C264.283 136.19 270.362 119.572 279.713 119.572C289.064 119.572 291.992 131.028 291.992 131.028C291.992 131.028 298.3 124.806 303.484 124.806C308.668 124.806 313.179 133.033 313.179 133.033C313.179 133.033 320.504 128.629 325.573 136.19Z" fill="#EBEBEB"/>
<path d="M278.603 71.1847H249.963C249.963 71.1847 256.364 61.8767 261.419 61.8767C266.474 61.8767 267.949 68.0629 267.949 68.0629C267.949 68.0629 271.529 65.199 274.808 65.693C278.087 66.187 278.603 71.1847 278.603 71.1847Z" fill="#EBEBEB"/>
<path d="M88.2185 113.457H32.4277C32.4277 113.457 40.0961 96.4022 48.2442 95.3354C56.3923 94.2685 60.3231 108.009 60.3231 108.009C60.3231 108.009 65.5929 103.154 69.7385 103.154C73.8841 103.154 77.0847 109.548 77.0847 109.548C77.0847 109.548 85.3759 105.166 88.2185 113.457Z" fill="#EBEBEB"/>
<path d="M128.83 49.7405H91.1396C91.1396 49.7405 97.5836 37.3823 104.636 37.1962C111.689 37.01 115.376 46.5543 115.376 46.5543C115.376 46.5543 126.281 37.7833 128.83 49.7405Z" fill="#EBEBEB"/>
<path d="M109.985 135.081H84.5454C84.5454 135.081 88.9202 126.739 93.6601 126.625C98.4 126.51 100.892 132.933 100.892 132.933C100.892 132.933 108.266 127.018 109.985 135.081Z" fill="#EBEBEB"/>
<path d="M258.032 148.756H227.008V311.388H258.032V148.756Z" fill="#DBDBDB"/>
<path d="M237.855 154.04H231.827V160.248H237.855V154.04Z" fill="#EBEBEB"/>
<path d="M245.567 154.04H239.538V160.248H245.567V154.04Z" fill="#EBEBEB"/>
<path d="M237.855 164.58H231.827V170.787H237.855V164.58Z" fill="#EBEBEB"/>
<path d="M245.567 164.58H239.538V170.787H245.567V164.58Z" fill="#EBEBEB"/>
<path d="M237.855 175.126H231.827V181.334H237.855V175.126Z" fill="#EBEBEB"/>
<path d="M245.567 175.126H239.538V181.334H245.567V175.126Z" fill="#EBEBEB"/>
<path d="M237.855 185.666H231.827V191.874H237.855V185.666Z" fill="#EBEBEB"/>
<path d="M245.567 185.666H239.538V191.874H245.567V185.666Z" fill="#EBEBEB"/>
<path d="M237.855 196.213H231.827V202.42H237.855V196.213Z" fill="#EBEBEB"/>
<path d="M245.567 196.213H239.538V202.42H245.567V196.213Z" fill="#EBEBEB"/>
<path d="M237.855 206.752H231.827V212.96H237.855V206.752Z" fill="#EBEBEB"/>
<path d="M245.567 206.752H239.538V212.96H245.567V206.752Z" fill="#EBEBEB"/>
<path d="M237.855 217.299H231.827V223.507H237.855V217.299Z" fill="#EBEBEB"/>
<path d="M245.567 217.299H239.538V223.507H245.567V217.299Z" fill="#EBEBEB"/>
<path d="M237.855 227.838H231.827V234.046H237.855V227.838Z" fill="#EBEBEB"/>
<path d="M245.567 227.838H239.538V234.046H245.567V227.838Z" fill="#EBEBEB"/>
<path d="M237.855 238.385H231.827V244.593H237.855V238.385Z" fill="#EBEBEB"/>
<path d="M245.567 238.385H239.538V244.593H245.567V238.385Z" fill="#EBEBEB"/>
<path d="M237.855 248.925H231.827V255.132H237.855V248.925Z" fill="#EBEBEB"/>
<path d="M245.567 248.925H239.538V255.132H245.567V248.925Z" fill="#EBEBEB"/>
<path d="M237.855 259.471H231.827V265.679H237.855V259.471Z" fill="#EBEBEB"/>
<path d="M245.567 259.471H239.538V265.679H245.567V259.471Z" fill="#EBEBEB"/>
<path d="M237.855 270.011H231.827V276.218H237.855V270.011Z" fill="#EBEBEB"/>
<path d="M245.567 270.011H239.538V276.218H245.567V270.011Z" fill="#EBEBEB"/>
<path d="M237.855 280.557H231.827V286.765H237.855V280.557Z" fill="#EBEBEB"/>
<path d="M245.567 280.557H239.538V286.765H245.567V280.557Z" fill="#EBEBEB"/>
<path d="M237.855 291.097H231.827V297.305H237.855V291.097Z" fill="#EBEBEB"/>
<path d="M247.192 297.305H253.221V291.097H247.192V297.305Z" fill="#EBEBEB"/>
<path d="M247.192 286.758H253.221V280.55H247.192V286.758Z" fill="#EBEBEB"/>
<path d="M247.192 276.218H253.221V270.011H247.192V276.218Z" fill="#EBEBEB"/>
<path d="M247.192 265.672H253.221V259.464H247.192V265.672Z" fill="#EBEBEB"/>
<path d="M247.192 255.132H253.221V248.925H247.192V255.132Z" fill="#EBEBEB"/>
<path d="M247.192 244.586H253.221V238.378H247.192V244.586Z" fill="#EBEBEB"/>
<path d="M247.192 234.046H253.221V227.838H247.192V234.046Z" fill="#EBEBEB"/>
<path d="M247.192 223.499H253.221V217.292H247.192V223.499Z" fill="#EBEBEB"/>
<path d="M247.192 212.96H253.221V206.752H247.192V212.96Z" fill="#EBEBEB"/>
<path d="M247.192 202.413H253.221V196.205H247.192V202.413Z" fill="#EBEBEB"/>
<path d="M247.192 191.874H253.221V185.666H247.192V191.874Z" fill="#EBEBEB"/>
<path d="M247.192 181.327H253.221V175.119H247.192V181.327Z" fill="#EBEBEB"/>
<path d="M247.192 170.787H253.221V164.58H247.192V170.787Z" fill="#EBEBEB"/>
<path d="M247.192 160.241H253.221V154.033H247.192V160.241Z" fill="#EBEBEB"/>
<path d="M245.567 291.097H239.538V297.305H245.567V291.097Z" fill="#EBEBEB"/>
<path d="M282.491 148.756H258.032V311.388H282.491V148.756Z" fill="#A6A6A6"/>
<path d="M274.987 297.305H279.97V291.097H274.987V297.305Z" fill="#C7C7C7"/>
<path d="M268.615 297.305H273.598V291.097H268.615V297.305Z" fill="#C7C7C7"/>
<path d="M274.987 286.758H279.97V280.55H274.987V286.758Z" fill="#C7C7C7"/>
<path d="M268.615 286.758H273.598V280.55H268.615V286.758Z" fill="#C7C7C7"/>
<path d="M274.987 276.218H279.97V270.011H274.987V276.218Z" fill="#C7C7C7"/>
<path d="M268.615 276.218H273.598V270.011H268.615V276.218Z" fill="#C7C7C7"/>
<path d="M274.987 265.672H279.97V259.464H274.987V265.672Z" fill="#C7C7C7"/>
<path d="M268.615 265.672H273.598V259.464H268.615V265.672Z" fill="#C7C7C7"/>
<path d="M274.987 255.132H279.97V248.925H274.987V255.132Z" fill="#C7C7C7"/>
<path d="M268.615 255.132H273.598V248.925H268.615V255.132Z" fill="#C7C7C7"/>
<path d="M274.987 244.586H279.97V238.378H274.987V244.586Z" fill="#C7C7C7"/>
<path d="M268.615 244.586H273.598V238.378H268.615V244.586Z" fill="#C7C7C7"/>
<path d="M274.987 234.046H279.97V227.838H274.987V234.046Z" fill="#C7C7C7"/>
<path d="M268.615 234.046H273.598V227.838H268.615V234.046Z" fill="#C7C7C7"/>
<path d="M274.987 223.499H279.97V217.292H274.987V223.499Z" fill="#C7C7C7"/>
<path d="M268.615 223.499H273.598V217.292H268.615V223.499Z" fill="#C7C7C7"/>
<path d="M274.987 212.96H279.97V206.752H274.987V212.96Z" fill="#C7C7C7"/>
<path d="M268.615 212.96H273.598V206.752H268.615V212.96Z" fill="#C7C7C7"/>
<path d="M274.987 202.413H279.97V196.205H274.987V202.413Z" fill="#C7C7C7"/>
<path d="M268.615 202.413H273.598V196.205H268.615V202.413Z" fill="#C7C7C7"/>
<path d="M274.987 191.874H279.97V185.666H274.987V191.874Z" fill="#C7C7C7"/>
<path d="M268.615 191.874H273.598V185.666H268.615V191.874Z" fill="#C7C7C7"/>
<path d="M274.987 181.327H279.97V175.119H274.987V181.327Z" fill="#C7C7C7"/>
<path d="M268.615 181.327H273.598V175.119H268.615V181.327Z" fill="#C7C7C7"/>
<path d="M274.987 170.787H279.97V164.58H274.987V170.787Z" fill="#C7C7C7"/>
<path d="M268.615 170.787H273.598V164.58H268.615V170.787Z" fill="#C7C7C7"/>
<path d="M274.987 160.241H279.97V154.033H274.987V160.241Z" fill="#C7C7C7"/>
<path d="M267.29 154.04H262.307V160.248H267.29V154.04Z" fill="#C7C7C7"/>
<path d="M267.29 164.58H262.307V170.787H267.29V164.58Z" fill="#C7C7C7"/>
<path d="M267.29 175.126H262.307V181.334H267.29V175.126Z" fill="#C7C7C7"/>
<path d="M267.29 185.666H262.307V191.874H267.29V185.666Z" fill="#C7C7C7"/>
<path d="M267.29 196.213H262.307V202.42H267.29V196.213Z" fill="#C7C7C7"/>
<path d="M267.29 206.752H262.307V212.96H267.29V206.752Z" fill="#C7C7C7"/>
<path d="M267.29 217.299H262.307V223.507H267.29V217.299Z" fill="#C7C7C7"/>
<path d="M267.29 227.838H262.307V234.046H267.29V227.838Z" fill="#C7C7C7"/>
<path d="M267.29 238.385H262.307V244.593H267.29V238.385Z" fill="#C7C7C7"/>
<path d="M267.29 248.925H262.307V255.132H267.29V248.925Z" fill="#C7C7C7"/>
<path d="M267.29 259.471H262.307V265.679H267.29V259.471Z" fill="#C7C7C7"/>
<path d="M267.29 270.011H262.307V276.218H267.29V270.011Z" fill="#C7C7C7"/>
<path d="M267.29 280.557H262.307V286.765H267.29V280.557Z" fill="#C7C7C7"/>
<path d="M267.29 291.097H262.307V297.305H267.29V291.097Z" fill="#C7C7C7"/>
<path d="M268.615 160.241H273.598V154.033H268.615V160.241Z" fill="#C7C7C7"/>
<path d="M100.512 145.205H68.1489V311.388H100.512V145.205Z" fill="#EBEBEB"/>
<path d="M100.512 141.897H67.3687V145.205H100.512V141.897Z" fill="#C7C7C7"/>
<path d="M74.3496 150.081H71.0703V311.388H74.3496V150.081Z" fill="white"/>
<path d="M80.1636 150.081H76.8843V311.388H80.1636V150.081Z" fill="white"/>
<path d="M85.9702 150.081H82.6909V311.388H85.9702V150.081Z" fill="white"/>
<path d="M91.7768 150.081H88.4976V311.388H91.7768V150.081Z" fill="white"/>
<path d="M97.584 150.081H94.3047V311.388H97.584V150.081Z" fill="white"/>
<path d="M74.3496 154.262H71.0703V160.792H74.3496V154.262Z" fill="#EBEBEB"/>
<path d="M80.1636 154.262H76.8843V160.792H80.1636V154.262Z" fill="#EBEBEB"/>
<path d="M85.9702 154.262H82.6909V160.792H85.9702V154.262Z" fill="#EBEBEB"/>
<path d="M91.7768 154.262H88.4976V160.792H91.7768V154.262Z" fill="#EBEBEB"/>
<path d="M97.584 154.262H94.3047V160.792H97.584V154.262Z" fill="#EBEBEB"/>
<path d="M74.3496 164.88H71.0703V171.41H74.3496V164.88Z" fill="#EBEBEB"/>
<path d="M80.1636 164.88H76.8843V171.41H80.1636V164.88Z" fill="#EBEBEB"/>
<path d="M85.9702 164.88H82.6909V171.41H85.9702V164.88Z" fill="#EBEBEB"/>
<path d="M91.7768 164.88H88.4976V171.41H91.7768V164.88Z" fill="#EBEBEB"/>
<path d="M97.584 164.88H94.3047V171.41H97.584V164.88Z" fill="#EBEBEB"/>
<path d="M74.3496 175.499H71.0703V182.029H74.3496V175.499Z" fill="#EBEBEB"/>
<path d="M80.1636 175.499H76.8843V182.029H80.1636V175.499Z" fill="#EBEBEB"/>
<path d="M85.9702 175.499H82.6909V182.029H85.9702V175.499Z" fill="#EBEBEB"/>
<path d="M91.7768 175.499H88.4976V182.029H91.7768V175.499Z" fill="#EBEBEB"/>
<path d="M97.584 175.499H94.3047V182.029H97.584V175.499Z" fill="#EBEBEB"/>
<path d="M74.3496 186.117H71.0703V192.647H74.3496V186.117Z" fill="#EBEBEB"/>
<path d="M80.1636 186.117H76.8843V192.647H80.1636V186.117Z" fill="#EBEBEB"/>
<path d="M85.9702 186.117H82.6909V192.647H85.9702V186.117Z" fill="#EBEBEB"/>
<path d="M91.7768 186.117H88.4976V192.647H91.7768V186.117Z" fill="#EBEBEB"/>
<path d="M97.584 186.117H94.3047V192.647H97.584V186.117Z" fill="#EBEBEB"/>
<path d="M74.3496 196.735H71.0703V203.265H74.3496V196.735Z" fill="#EBEBEB"/>
<path d="M80.1636 196.735H76.8843V203.265H80.1636V196.735Z" fill="#EBEBEB"/>
<path d="M85.9702 196.735H82.6909V203.265H85.9702V196.735Z" fill="#EBEBEB"/>
<path d="M91.7768 196.735H88.4976V203.265H91.7768V196.735Z" fill="#EBEBEB"/>
<path d="M97.584 196.735H94.3047V203.265H97.584V196.735Z" fill="#EBEBEB"/>
<path d="M74.3496 207.346H71.0703V213.876H74.3496V207.346Z" fill="#EBEBEB"/>
<path d="M80.1636 207.346H76.8843V213.876H80.1636V207.346Z" fill="#EBEBEB"/>
<path d="M85.9702 207.346H82.6909V213.876H85.9702V207.346Z" fill="#EBEBEB"/>
<path d="M91.7768 207.346H88.4976V213.876H91.7768V207.346Z" fill="#EBEBEB"/>
<path d="M97.584 207.346H94.3047V213.876H97.584V207.346Z" fill="#EBEBEB"/>
<path d="M74.3496 217.965H71.0703V224.495H74.3496V217.965Z" fill="#EBEBEB"/>
<path d="M80.1636 217.965H76.8843V224.495H80.1636V217.965Z" fill="#EBEBEB"/>
<path d="M85.9702 217.965H82.6909V224.495H85.9702V217.965Z" fill="#EBEBEB"/>
<path d="M91.7768 217.965H88.4976V224.495H91.7768V217.965Z" fill="#EBEBEB"/>
<path d="M97.584 217.965H94.3047V224.495H97.584V217.965Z" fill="#EBEBEB"/>
<path d="M74.3496 228.583H71.0703V235.113H74.3496V228.583Z" fill="#EBEBEB"/>
<path d="M80.1636 228.583H76.8843V235.113H80.1636V228.583Z" fill="#EBEBEB"/>
<path d="M85.9702 228.583H82.6909V235.113H85.9702V228.583Z" fill="#EBEBEB"/>
<path d="M91.7768 228.583H88.4976V235.113H91.7768V228.583Z" fill="#EBEBEB"/>
<path d="M97.584 228.583H94.3047V235.113H97.584V228.583Z" fill="#EBEBEB"/>
<path d="M74.3496 239.201H71.0703V245.731H74.3496V239.201Z" fill="#EBEBEB"/>
<path d="M80.1636 239.201H76.8843V245.731H80.1636V239.201Z" fill="#EBEBEB"/>
<path d="M85.9702 239.201H82.6909V245.731H85.9702V239.201Z" fill="#EBEBEB"/>
<path d="M91.7768 239.201H88.4976V245.731H91.7768V239.201Z" fill="#EBEBEB"/>
<path d="M97.584 239.201H94.3047V245.731H97.584V239.201Z" fill="#EBEBEB"/>
<path d="M74.3496 249.82H71.0703V256.349H74.3496V249.82Z" fill="#EBEBEB"/>
<path d="M80.1636 249.82H76.8843V256.349H80.1636V249.82Z" fill="#EBEBEB"/>
<path d="M85.9702 249.82H82.6909V256.349H85.9702V249.82Z" fill="#EBEBEB"/>
<path d="M91.7768 249.82H88.4976V256.349H91.7768V249.82Z" fill="#EBEBEB"/>
<path d="M97.584 249.82H94.3047V256.349H97.584V249.82Z" fill="#EBEBEB"/>
<path d="M74.3496 260.431H71.0703V266.961H74.3496V260.431Z" fill="#EBEBEB"/>
<path d="M80.1636 260.431H76.8843V266.961H80.1636V260.431Z" fill="#EBEBEB"/>
<path d="M85.9702 260.431H82.6909V266.961H85.9702V260.431Z" fill="#EBEBEB"/>
<path d="M91.7768 260.431H88.4976V266.961H91.7768V260.431Z" fill="#EBEBEB"/>
<path d="M97.584 260.431H94.3047V266.961H97.584V260.431Z" fill="#EBEBEB"/>
<path d="M74.3496 271.049H71.0703V277.579H74.3496V271.049Z" fill="#EBEBEB"/>
<path d="M80.1636 271.049H76.8843V277.579H80.1636V271.049Z" fill="#EBEBEB"/>
<path d="M85.9702 271.049H82.6909V277.579H85.9702V271.049Z" fill="#EBEBEB"/>
<path d="M91.7768 271.049H88.4976V277.579H91.7768V271.049Z" fill="#EBEBEB"/>
<path d="M97.584 271.049H94.3047V277.579H97.584V271.049Z" fill="#EBEBEB"/>
<path d="M74.3496 281.667H71.0703V288.197H74.3496V281.667Z" fill="#EBEBEB"/>
<path d="M80.1636 281.667H76.8843V288.197H80.1636V281.667Z" fill="#EBEBEB"/>
<path d="M85.9702 281.667H82.6909V288.197H85.9702V281.667Z" fill="#EBEBEB"/>
<path d="M91.7768 281.667H88.4976V288.197H91.7768V281.667Z" fill="#EBEBEB"/>
<path d="M97.584 281.667H94.3047V288.197H97.584V281.667Z" fill="#EBEBEB"/>
<path d="M74.3496 292.285H71.0703V311.396H74.3496V292.285Z" fill="#EBEBEB"/>
<path d="M80.1636 292.285H76.8843V311.396H80.1636V292.285Z" fill="#EBEBEB"/>
<path d="M85.9702 292.285H82.6909V311.396H85.9702V292.285Z" fill="#EBEBEB"/>
<path d="M91.7768 292.285H88.4976V311.396H91.7768V292.285Z" fill="#EBEBEB"/>
<path d="M97.584 292.285H94.3047V311.396H97.584V292.285Z" fill="#EBEBEB"/>
<path d="M121.291 145.205H100.512V311.388H121.291V145.205Z" fill="#DBDBDB"/>
<path d="M122.193 141.897H100.512V145.205H122.193V141.897Z" fill="#C7C7C7"/>
<path d="M106.72 150.081H103.44V311.388H106.72V150.081Z" fill="#C7C7C7"/>
<path d="M112.527 150.081H109.248V311.388H112.527V150.081Z" fill="#C7C7C7"/>
<path d="M118.333 150.081H115.054V311.388H118.333V150.081Z" fill="#C7C7C7"/>
<path d="M106.72 154.262H103.44V160.792H106.72V154.262Z" fill="#DBDBDB"/>
<path d="M112.527 154.262H109.248V160.792H112.527V154.262Z" fill="#DBDBDB"/>
<path d="M118.333 154.262H115.054V160.792H118.333V154.262Z" fill="#DBDBDB"/>
<path d="M106.72 164.88H103.44V171.41H106.72V164.88Z" fill="#DBDBDB"/>
<path d="M112.527 164.88H109.248V171.41H112.527V164.88Z" fill="#DBDBDB"/>
<path d="M118.333 164.88H115.054V171.41H118.333V164.88Z" fill="#DBDBDB"/>
<path d="M106.72 175.499H103.44V182.029H106.72V175.499Z" fill="#DBDBDB"/>
<path d="M112.527 175.499H109.248V182.029H112.527V175.499Z" fill="#DBDBDB"/>
<path d="M118.333 175.499H115.054V182.029H118.333V175.499Z" fill="#DBDBDB"/>
<path d="M106.72 186.117H103.44V192.647H106.72V186.117Z" fill="#DBDBDB"/>
<path d="M112.527 186.117H109.248V192.647H112.527V186.117Z" fill="#DBDBDB"/>
<path d="M118.333 186.117H115.054V192.647H118.333V186.117Z" fill="#DBDBDB"/>
<path d="M106.72 196.735H103.44V203.265H106.72V196.735Z" fill="#DBDBDB"/>
<path d="M112.527 196.735H109.248V203.265H112.527V196.735Z" fill="#DBDBDB"/>
<path d="M118.333 196.735H115.054V203.265H118.333V196.735Z" fill="#DBDBDB"/>
<path d="M106.72 207.346H103.44V213.876H106.72V207.346Z" fill="#DBDBDB"/>
<path d="M112.527 207.346H109.248V213.876H112.527V207.346Z" fill="#DBDBDB"/>
<path d="M118.333 207.346H115.054V213.876H118.333V207.346Z" fill="#DBDBDB"/>
<path d="M106.72 217.965H103.44V224.495H106.72V217.965Z" fill="#DBDBDB"/>
<path d="M112.527 217.965H109.248V224.495H112.527V217.965Z" fill="#DBDBDB"/>
<path d="M118.333 217.965H115.054V224.495H118.333V217.965Z" fill="#DBDBDB"/>
<path d="M106.72 228.583H103.44V235.113H106.72V228.583Z" fill="#DBDBDB"/>
<path d="M112.527 228.583H109.248V235.113H112.527V228.583Z" fill="#DBDBDB"/>
<path d="M118.333 228.583H115.054V235.113H118.333V228.583Z" fill="#DBDBDB"/>
<path d="M106.72 239.201H103.44V245.731H106.72V239.201Z" fill="#DBDBDB"/>
<path d="M112.527 239.201H109.248V245.731H112.527V239.201Z" fill="#DBDBDB"/>
<path d="M118.333 239.201H115.054V245.731H118.333V239.201Z" fill="#DBDBDB"/>
<path d="M106.72 249.82H103.44V256.349H106.72V249.82Z" fill="#DBDBDB"/>
<path d="M112.527 249.82H109.248V256.349H112.527V249.82Z" fill="#DBDBDB"/>
<path d="M118.333 249.82H115.054V256.349H118.333V249.82Z" fill="#DBDBDB"/>
<path d="M106.72 260.431H103.44V266.961H106.72V260.431Z" fill="#DBDBDB"/>
<path d="M112.527 260.431H109.248V266.961H112.527V260.431Z" fill="#DBDBDB"/>
<path d="M118.333 260.431H115.054V266.961H118.333V260.431Z" fill="#DBDBDB"/>
<path d="M106.72 271.049H103.44V277.579H106.72V271.049Z" fill="#DBDBDB"/>
<path d="M112.527 271.049H109.248V277.579H112.527V271.049Z" fill="#DBDBDB"/>
<path d="M118.333 271.049H115.054V277.579H118.333V271.049Z" fill="#DBDBDB"/>
<path d="M106.72 281.667H103.44V288.197H106.72V281.667Z" fill="#DBDBDB"/>
<path d="M112.527 281.667H109.248V288.197H112.527V281.667Z" fill="#DBDBDB"/>
<path d="M118.333 281.667H115.054V288.197H118.333V281.667Z" fill="#DBDBDB"/>
<path d="M106.72 292.285H103.44V311.396H106.72V292.285Z" fill="#DBDBDB"/>
<path d="M112.527 292.285H109.248V311.396H112.527V292.285Z" fill="#DBDBDB"/>
<path d="M118.333 292.285H115.054V311.396H118.333V292.285Z" fill="#DBDBDB"/>
<path d="M62.7144 194.981H32.0195V311.396H62.7144V194.981Z" fill="#EBEBEB"/>
<path d="M62.7072 187.255H36.3799V194.974H62.7072V187.255Z" fill="#C7C7C7"/>
<path d="M59.3498 199.005H35.3853V286.028H59.3498V199.005Z" fill="#DBDBDB"/>
<path d="M59.3498 207.311H35.3853V209.366H59.3498V207.311Z" fill="white"/>
<path d="M59.3498 215.831H35.3853V217.886H59.3498V215.831Z" fill="white"/>
<path d="M59.3498 224.351H35.3853V226.406H59.3498V224.351Z" fill="white"/>
<path d="M59.3498 232.865H35.3853V234.92H59.3498V232.865Z" fill="white"/>
<path d="M59.3498 241.385H35.3853V243.44H59.3498V241.385Z" fill="white"/>
<path d="M59.3498 249.905H35.3853V251.96H59.3498V249.905Z" fill="white"/>
<path d="M59.3498 258.419H35.3853V260.474H59.3498V258.419Z" fill="white"/>
<path d="M59.3498 266.939H35.3853V268.994H59.3498V266.939Z" fill="white"/>
<path d="M59.3498 275.46H35.3853V277.514H59.3498V275.46Z" fill="white"/>
<path d="M59.3498 283.98H35.3853V286.035H59.3498V283.98Z" fill="white"/>
<path d="M81.9394 194.981H62.7148V311.396H81.9394V194.981Z" fill="#DBDBDB"/>
<path d="M79.054 187.255H62.7148V194.974H79.054V187.255Z" fill="#A6A6A6"/>
<path d="M80.1492 199.005H65.3638V286.028H80.1492V199.005Z" fill="#C7C7C7"/>
<path d="M80.1492 207.311H65.3638V209.366H80.1492V207.311Z" fill="white"/>
<path d="M80.1492 215.831H65.3638V217.886H80.1492V215.831Z" fill="white"/>
<path d="M80.1492 224.351H65.3638V226.406H80.1492V224.351Z" fill="white"/>
<path d="M80.1492 232.865H65.3638V234.92H80.1492V232.865Z" fill="white"/>
<path d="M80.1492 241.385H65.3638V243.44H80.1492V241.385Z" fill="white"/>
<path d="M80.1492 249.905H65.3638V251.96H80.1492V249.905Z" fill="white"/>
<path d="M80.1492 258.419H65.3638V260.474H80.1492V258.419Z" fill="white"/>
<path d="M80.1492 266.939H65.3638V268.994H80.1492V266.939Z" fill="white"/>
<path d="M80.1492 275.46H65.3638V277.514H80.1492V275.46Z" fill="white"/>
<path d="M80.1492 283.98H65.3638V286.035H80.1492V283.98Z" fill="white"/>
<path d="M300.677 196.943H284.281V216.311H300.677V196.943Z" fill="#DBDBDB"/>
<path d="M311.074 196.943H300.677V217.02H311.074V196.943Z" fill="#C7C7C7"/>
<path d="M311.761 205.492H301.443V217.02H311.761V205.492Z" fill="#DBDBDB"/>
<path d="M318.198 205.492H311.761V217.02H318.198V205.492Z" fill="#C7C7C7"/>
<path d="M304.5 215.051H277.994V311.396H304.5V215.051Z" fill="#EBEBEB"/>
<path d="M289.357 219.189H281.023V222.597H289.357V219.189Z" fill="white"/>
<path d="M300.019 219.189H291.685V222.597H300.019V219.189Z" fill="white"/>
<path d="M289.357 224.974H281.023V228.383H289.357V224.974Z" fill="white"/>
<path d="M300.019 224.974H291.685V228.383H300.019V224.974Z" fill="white"/>
<path d="M289.357 230.752H281.023V234.161H289.357V230.752Z" fill="white"/>
<path d="M300.019 230.752H291.685V234.161H300.019V230.752Z" fill="white"/>
<path d="M289.357 236.538H281.023V239.946H289.357V236.538Z" fill="white"/>
<path d="M300.019 236.538H291.685V239.946H300.019V236.538Z" fill="white"/>
<path d="M289.357 242.323H281.023V245.731H289.357V242.323Z" fill="white"/>
<path d="M300.019 242.323H291.685V245.731H300.019V242.323Z" fill="white"/>
<path d="M289.357 248.101H281.023V251.509H289.357V248.101Z" fill="white"/>
<path d="M300.019 248.101H291.685V251.509H300.019V248.101Z" fill="white"/>
<path d="M289.357 253.886H281.023V257.295H289.357V253.886Z" fill="white"/>
<path d="M300.019 253.886H291.685V257.295H300.019V253.886Z" fill="white"/>
<path d="M289.357 259.672H281.023V263.08H289.357V259.672Z" fill="white"/>
<path d="M300.019 259.672H291.685V263.08H300.019V259.672Z" fill="white"/>
<path d="M289.357 265.45H281.023V268.858H289.357V265.45Z" fill="white"/>
<path d="M300.019 265.45H291.685V268.858H300.019V265.45Z" fill="white"/>
<path d="M289.357 271.235H281.023V274.643H289.357V271.235Z" fill="white"/>
<path d="M300.019 271.235H291.685V274.643H300.019V271.235Z" fill="white"/>
<path d="M289.357 277.02H281.023V280.429H289.357V277.02Z" fill="white"/>
<path d="M300.019 277.02H291.685V280.429H300.019V277.02Z" fill="white"/>
<path d="M289.357 282.798H281.023V286.207H289.357V282.798Z" fill="white"/>
<path d="M300.019 282.798H291.685V286.207H300.019V282.798Z" fill="white"/>
<path d="M289.357 288.584H281.023V291.992H289.357V288.584Z" fill="white"/>
<path d="M300.019 288.584H291.685V291.992H300.019V288.584Z" fill="white"/>
<path d="M289.357 294.362H281.023V297.77H289.357V294.362Z" fill="white"/>
<path d="M300.019 294.362H291.685V297.77H300.019V294.362Z" fill="white"/>
<path d="M325.98 215.051H304.5V311.396H325.98V215.051Z" fill="#C7C7C7"/>
<path d="M316.98 297.777H323.825V294.369H316.98V297.777Z" fill="#EBEBEB"/>
<path d="M308.231 297.777H315.076V294.369H308.231V297.777Z" fill="#EBEBEB"/>
<path d="M316.98 291.985H323.825V288.577H316.98V291.985Z" fill="#EBEBEB"/>
<path d="M308.231 291.985H315.076V288.577H308.231V291.985Z" fill="#EBEBEB"/>
<path d="M316.98 286.207H323.825V282.798H316.98V286.207Z" fill="#EBEBEB"/>
<path d="M308.231 286.207H315.076V282.798H308.231V286.207Z" fill="#EBEBEB"/>
<path d="M316.98 280.421H323.825V277.013H316.98V280.421Z" fill="#EBEBEB"/>
<path d="M308.231 280.421H315.076V277.013H308.231V280.421Z" fill="#EBEBEB"/>
<path d="M316.98 274.636H323.825V271.228H316.98V274.636Z" fill="#EBEBEB"/>
<path d="M308.231 274.636H315.076V271.228H308.231V274.636Z" fill="#EBEBEB"/>
<path d="M316.98 268.858H323.825V265.45H316.98V268.858Z" fill="#EBEBEB"/>
<path d="M308.231 268.858H315.076V265.45H308.231V268.858Z" fill="#EBEBEB"/>
<path d="M316.98 263.073H323.825V259.665H316.98V263.073Z" fill="#EBEBEB"/>
<path d="M308.231 263.073H315.076V259.665H308.231V263.073Z" fill="#EBEBEB"/>
<path d="M316.98 257.295H323.825V253.886H316.98V257.295Z" fill="#EBEBEB"/>
<path d="M308.231 257.295H315.076V253.886H308.231V257.295Z" fill="#EBEBEB"/>
<path d="M316.98 251.509H323.825V248.101H316.98V251.509Z" fill="#EBEBEB"/>
<path d="M308.231 251.509H315.076V248.101H308.231V251.509Z" fill="#EBEBEB"/>
<path d="M316.98 245.724H323.825V242.316H316.98V245.724Z" fill="#EBEBEB"/>
<path d="M308.231 245.724H315.076V242.316H308.231V245.724Z" fill="#EBEBEB"/>
<path d="M316.98 239.946H323.825V236.538H316.98V239.946Z" fill="#EBEBEB"/>
<path d="M308.231 239.946H315.076V236.538H308.231V239.946Z" fill="#EBEBEB"/>
<path d="M316.98 234.161H323.825V230.752H316.98V234.161Z" fill="#EBEBEB"/>
<path d="M308.231 234.161H315.076V230.752H308.231V234.161Z" fill="#EBEBEB"/>
<path d="M316.98 228.375H323.825V224.967H316.98V228.375Z" fill="#EBEBEB"/>
<path d="M308.231 228.375H315.076V224.967H308.231V228.375Z" fill="#EBEBEB"/>
<path d="M316.98 222.597H323.825V219.189H316.98V222.597Z" fill="#EBEBEB"/>
<path d="M308.231 222.597H315.076V219.189H308.231V222.597Z" fill="#EBEBEB"/>
<path d="M208.75 248.609H177.482V311.388H208.75V248.609Z" fill="#C7C7C7"/>
<path d="M187.936 254.044H182.401V257.889H187.936V254.044Z" fill="#DBDBDB"/>
<path d="M187.936 262.264H182.401V266.109H187.936V262.264Z" fill="#DBDBDB"/>
<path d="M187.936 270.476H182.401V274.321H187.936V270.476Z" fill="#DBDBDB"/>
<path d="M187.936 278.689H182.401V282.534H187.936V278.689Z" fill="#DBDBDB"/>
<path d="M187.936 286.908H182.401V290.753H187.936V286.908Z" fill="#DBDBDB"/>
<path d="M187.936 295.121H182.401V298.966H187.936V295.121Z" fill="#DBDBDB"/>
<path d="M187.936 303.333H182.401V307.178H187.936V303.333Z" fill="#DBDBDB"/>
<path d="M195.897 254.044H190.363V257.889H195.897V254.044Z" fill="#DBDBDB"/>
<path d="M195.897 262.264H190.363V266.109H195.897V262.264Z" fill="#DBDBDB"/>
<path d="M195.897 270.476H190.363V274.321H195.897V270.476Z" fill="#DBDBDB"/>
<path d="M195.897 278.689H190.363V282.534H195.897V278.689Z" fill="#DBDBDB"/>
<path d="M195.897 286.908H190.363V290.753H195.897V286.908Z" fill="#DBDBDB"/>
<path d="M195.897 295.121H190.363V298.966H195.897V295.121Z" fill="#DBDBDB"/>
<path d="M195.897 303.333H190.363V307.178H195.897V303.333Z" fill="#DBDBDB"/>
<path d="M203.838 254.044H198.303V257.889H203.838V254.044Z" fill="#DBDBDB"/>
<path d="M203.838 262.264H198.303V266.109H203.838V262.264Z" fill="#DBDBDB"/>
<path d="M203.838 270.476H198.303V274.321H203.838V270.476Z" fill="#DBDBDB"/>
<path d="M203.838 278.689H198.303V282.534H203.838V278.689Z" fill="#DBDBDB"/>
<path d="M203.838 286.908H198.303V290.753H203.838V286.908Z" fill="#DBDBDB"/>
<path d="M203.838 295.121H198.303V298.966H203.838V295.121Z" fill="#DBDBDB"/>
<path d="M203.838 303.333H198.303V307.178H203.838V303.333Z" fill="#DBDBDB"/>
<path d="M208.75 242.072H187.936V248.617H208.75V242.072Z" fill="#DBDBDB"/>
<path d="M208.75 238.02H195.554V242.072H208.75V238.02Z" fill="#EBEBEB"/>
<path d="M230.688 248.609H208.75V311.388H230.688V248.609Z" fill="#A6A6A6"/>
<path d="M223.943 306.57H228.447V302.725H223.943V306.57Z" fill="#C7C7C7"/>
<path d="M223.943 298.357H228.447V294.512H223.943V298.357Z" fill="#C7C7C7"/>
<path d="M223.943 290.138H228.447V286.293H223.943V290.138Z" fill="#C7C7C7"/>
<path d="M223.943 281.925H228.447V278.08H223.943V281.925Z" fill="#C7C7C7"/>
<path d="M223.943 273.712H228.447V269.868H223.943V273.712Z" fill="#C7C7C7"/>
<path d="M223.943 265.493H228.447V261.648H223.943V265.493Z" fill="#C7C7C7"/>
<path d="M223.943 257.273H228.447V253.428H223.943V257.273Z" fill="#C7C7C7"/>
<path d="M217.464 306.57H221.967V302.725H217.464V306.57Z" fill="#C7C7C7"/>
<path d="M217.464 298.357H221.967V294.512H217.464V298.357Z" fill="#C7C7C7"/>
<path d="M217.464 290.138H221.967V286.293H217.464V290.138Z" fill="#C7C7C7"/>
<path d="M217.464 281.925H221.967V278.08H217.464V281.925Z" fill="#C7C7C7"/>
<path d="M217.464 273.712H221.967V269.868H217.464V273.712Z" fill="#C7C7C7"/>
<path d="M217.464 265.493H221.967V261.648H217.464V265.493Z" fill="#C7C7C7"/>
<path d="M217.464 257.273H221.967V253.428H217.464V257.273Z" fill="#C7C7C7"/>
<path d="M210.998 306.57H215.502V302.725H210.998V306.57Z" fill="#C7C7C7"/>
<path d="M210.998 298.357H215.502V294.512H210.998V298.357Z" fill="#C7C7C7"/>
<path d="M210.998 290.138H215.502V286.293H210.998V290.138Z" fill="#C7C7C7"/>
<path d="M210.998 281.925H215.502V278.08H210.998V281.925Z" fill="#C7C7C7"/>
<path d="M210.998 273.712H215.502V269.868H210.998V273.712Z" fill="#C7C7C7"/>
<path d="M210.998 265.493H215.502V261.648H210.998V265.493Z" fill="#C7C7C7"/>
<path d="M210.998 257.273H215.502V253.428H210.998V257.273Z" fill="#C7C7C7"/>
<path d="M227.366 242.072H208.75V248.617H227.366V242.072Z" fill="#C7C7C7"/>
<path d="M218.838 238.02H208.75V242.072H218.838V238.02Z" fill="#DBDBDB"/>
<path d="M291.204 161.1H243.948V306.19H291.204V161.1Z" fill="#6C757D"/>
<path d="M291.026 146.501H255.669V161.093H291.026V146.501Z" fill="#343A40"/>
<path d="M261.634 148.756H258.612V158.845H261.634V148.756Z" fill="#6C757D"/>
<path d="M266.918 148.756H263.896V158.845H266.918V148.756Z" fill="#6C757D"/>
<path d="M272.209 148.756H269.188V158.845H272.209V148.756Z" fill="#6C757D"/>
<path d="M277.5 148.756H274.479V158.845H277.5V148.756Z" fill="#6C757D"/>
<path d="M282.792 148.756H279.77V158.845H282.792V148.756Z" fill="#6C757D"/>
<path d="M288.083 148.756H285.062V158.845H288.083V148.756Z" fill="#6C757D"/>
<path d="M307.107 146.501H291.025V161.093H307.107V146.501Z" fill="#6C757D"/>
<path d="M295.852 148.756H293.281V158.845H295.852V148.756Z" fill="#343A40"/>
<path d="M300.348 148.756H297.777V158.845H300.348V148.756Z" fill="#343A40"/>
<path d="M304.844 148.756H302.274V158.845H304.844V148.756Z" fill="#343A40"/>
<path d="M315.076 161.1H291.025V306.19H315.076V161.1Z" fill="#343A40"/>
<path d="M263.453 139.104H262.372V146.501H263.453V139.104Z" fill="#212529"/>
<path d="M284.317 139.104H283.235V146.501H284.317V139.104Z" fill="#212529"/>
<path d="M289.114 126.174H257.581V139.104H289.114V126.174Z" fill="#FFC107"/>
<path d="M262.342 171.088H253.622V184.442H262.342V171.088Z" fill="#212529"/>
<path d="M280.092 171.088H271.371V184.442H280.092V171.088Z" fill="#212529"/>
<path d="M262.342 192.139H253.622V205.492H262.342V192.139Z" fill="#212529"/>
<path d="M280.092 192.139H271.371V205.492H280.092V192.139Z" fill="#212529"/>
<path d="M262.342 213.182H253.622V226.535H262.342V213.182Z" fill="#212529"/>
<path d="M280.092 213.182H271.371V226.535H280.092V213.182Z" fill="#212529"/>
<path d="M262.342 234.232H253.622V247.586H262.342V234.232Z" fill="#212529"/>
<path d="M280.092 234.232H271.371V247.586H280.092V234.232Z" fill="#212529"/>
<path d="M262.342 255.275H253.622V268.629H262.342V255.275Z" fill="#212529"/>
<path d="M280.092 255.275H271.371V268.629H280.092V255.275Z" fill="#212529"/>
<path d="M262.342 276.319H253.622V289.672H262.342V276.319Z" fill="#212529"/>
<path d="M280.092 276.319H271.371V289.672H280.092V276.319Z" fill="#212529"/>
<path d="M300.455 171.088H295.443V184.442H300.455V171.088Z" fill="#212529"/>
<path d="M310.658 171.088H305.646V184.442H310.658V171.088Z" fill="#212529"/>
<path d="M300.455 192.139H295.443V205.492H300.455V192.139Z" fill="#212529"/>
<path d="M310.658 192.139H305.646V205.492H310.658V192.139Z" fill="#212529"/>
<path d="M300.455 213.182H295.443V226.535H300.455V213.182Z" fill="#212529"/>
<path d="M310.658 213.182H305.646V226.535H310.658V213.182Z" fill="#212529"/>
<path d="M300.455 234.232H295.443V247.586H300.455V234.232Z" fill="#212529"/>
<path d="M310.658 234.232H305.646V247.586H310.658V234.232Z" fill="#212529"/>
<path d="M300.455 255.275H295.443V268.629H300.455V255.275Z" fill="#212529"/>
<path d="M310.658 255.275H305.646V268.629H310.658V255.275Z" fill="#212529"/>
<path d="M300.455 276.319H295.443V289.672H300.455V276.319Z" fill="#212529"/>
<path d="M310.658 276.319H305.646V289.672H310.658V276.319Z" fill="#212529"/>
<path d="M165.983 120.052H140.708V306.183H165.983V120.052Z" fill="#343A40"/>
<path d="M165.983 130.484H140.708V132.439H165.983V130.484Z" fill="#6C757D"/>
<path d="M147.968 138.188H143.314V149.071H147.968V138.188Z" fill="#212529"/>
<path d="M147.968 151.921H143.314V162.804H147.968V151.921Z" fill="#212529"/>
<path d="M147.968 165.647H143.314V176.53H147.968V165.647Z" fill="#212529"/>
<path d="M147.968 179.372H143.314V190.256H147.968V179.372Z" fill="#212529"/>
<path d="M147.968 193.105H143.314V203.988H147.968V193.105Z" fill="#212529"/>
<path d="M147.968 206.838H143.314V217.721H147.968V206.838Z" fill="#212529"/>
<path d="M147.968 220.557H143.314V231.44H147.968V220.557Z" fill="#212529"/>
<path d="M147.968 234.29H143.314V245.173H147.968V234.29Z" fill="#212529"/>
<path d="M147.968 248.022H143.314V258.906H147.968V248.022Z" fill="#212529"/>
<path d="M147.968 261.748H143.314V272.631H147.968V261.748Z" fill="#212529"/>
<path d="M147.968 275.474H143.314V286.357H147.968V275.474Z" fill="#212529"/>
<path d="M147.968 289.207H143.314V300.09H147.968V289.207Z" fill="#212529"/>
<path d="M147.968 138.188H143.314V149.071H147.968V138.188Z" fill="#212529"/>
<path d="M147.968 151.921H143.314V162.804H147.968V151.921Z" fill="#212529"/>
<path d="M147.968 165.647H143.314V176.53H147.968V165.647Z" fill="#212529"/>
<path d="M147.968 179.372H143.314V190.256H147.968V179.372Z" fill="#212529"/>
<path d="M147.968 193.105H143.314V203.988H147.968V193.105Z" fill="#212529"/>
<path d="M147.968 206.838H143.314V217.721H147.968V206.838Z" fill="#212529"/>
<path d="M147.968 220.557H143.314V231.44H147.968V220.557Z" fill="#212529"/>
<path d="M147.968 234.29H143.314V245.173H147.968V234.29Z" fill="#212529"/>
<path d="M147.968 248.022H143.314V258.906H147.968V248.022Z" fill="#212529"/>
<path d="M147.968 261.748H143.314V272.631H147.968V261.748Z" fill="#212529"/>
<path d="M147.968 275.474H143.314V286.357H147.968V275.474Z" fill="#212529"/>
<path d="M147.968 289.207H143.314V300.09H147.968V289.207Z" fill="#212529"/>
<path d="M155.673 138.188H151.019V149.071H155.673V138.188Z" fill="#212529"/>
<path d="M155.673 151.921H151.019V162.804H155.673V151.921Z" fill="#212529"/>
<path d="M155.673 165.647H151.019V176.53H155.673V165.647Z" fill="#212529"/>
<path d="M155.673 179.372H151.019V190.256H155.673V179.372Z" fill="#212529"/>
<path d="M155.673 193.105H151.019V203.988H155.673V193.105Z" fill="#212529"/>
<path d="M155.673 206.838H151.019V217.721H155.673V206.838Z" fill="#212529"/>
<path d="M155.673 220.557H151.019V231.44H155.673V220.557Z" fill="#212529"/>
<path d="M155.673 234.29H151.019V245.173H155.673V234.29Z" fill="#212529"/>
<path d="M155.673 248.022H151.019V258.906H155.673V248.022Z" fill="#212529"/>
<path d="M155.673 261.748H151.019V272.631H155.673V261.748Z" fill="#212529"/>
<path d="M155.673 275.474H151.019V286.357H155.673V275.474Z" fill="#212529"/>
<path d="M155.673 289.207H151.019V300.09H155.673V289.207Z" fill="#212529"/>
<path d="M155.673 138.188H151.019V149.071H155.673V138.188Z" fill="#212529"/>
<path d="M155.673 151.921H151.019V162.804H155.673V151.921Z" fill="#212529"/>
<path d="M155.673 165.647H151.019V176.53H155.673V165.647Z" fill="#212529"/>
<path d="M155.673 179.372H151.019V190.256H155.673V179.372Z" fill="#212529"/>
<path d="M155.673 193.105H151.019V203.988H155.673V193.105Z" fill="#212529"/>
<path d="M155.673 206.838H151.019V217.721H155.673V206.838Z" fill="#212529"/>
<path d="M155.673 220.557H151.019V231.44H155.673V220.557Z" fill="#212529"/>
<path d="M155.673 234.29H151.019V245.173H155.673V234.29Z" fill="#212529"/>
<path d="M155.673 248.022H151.019V258.906H155.673V248.022Z" fill="#212529"/>
<path d="M155.673 261.748H151.019V272.631H155.673V261.748Z" fill="#212529"/>
<path d="M155.673 275.474H151.019V286.357H155.673V275.474Z" fill="#212529"/>
<path d="M155.673 289.207H151.019V300.09H155.673V289.207Z" fill="#212529"/>
<path d="M163.377 138.188H158.723V149.071H163.377V138.188Z" fill="#212529"/>
<path d="M163.377 151.921H158.723V162.804H163.377V151.921Z" fill="#212529"/>
<path d="M163.377 165.647H158.723V176.53H163.377V165.647Z" fill="#212529"/>
<path d="M163.377 179.372H158.723V190.256H163.377V179.372Z" fill="#212529"/>
<path d="M163.377 193.105H158.723V203.988H163.377V193.105Z" fill="#212529"/>
<path d="M163.377 206.838H158.723V217.721H163.377V206.838Z" fill="#212529"/>
<path d="M163.377 220.557H158.723V231.44H163.377V220.557Z" fill="#212529"/>
<path d="M163.377 234.29H158.723V245.173H163.377V234.29Z" fill="#212529"/>
<path d="M163.377 248.022H158.723V258.906H163.377V248.022Z" fill="#212529"/>
<path d="M163.377 261.748H158.723V272.631H163.377V261.748Z" fill="#212529"/>
<path d="M163.377 275.474H158.723V286.357H163.377V275.474Z" fill="#212529"/>
<path d="M163.377 289.207H158.723V300.09H163.377V289.207Z" fill="#212529"/>
<path d="M163.377 138.188H158.723V149.071H163.377V138.188Z" fill="#212529"/>
<path d="M163.377 151.921H158.723V162.804H163.377V151.921Z" fill="#212529"/>
<path d="M163.377 165.647H158.723V176.53H163.377V165.647Z" fill="#212529"/>
<path d="M163.377 179.372H158.723V190.256H163.377V179.372Z" fill="#212529"/>
<path d="M163.377 193.105H158.723V203.988H163.377V193.105Z" fill="#212529"/>
<path d="M163.377 206.838H158.723V217.721H163.377V206.838Z" fill="#212529"/>
<path d="M163.377 220.557H158.723V231.44H163.377V220.557Z" fill="#212529"/>
<path d="M163.377 234.29H158.723V245.173H163.377V234.29Z" fill="#212529"/>
<path d="M163.377 248.022H158.723V258.906H163.377V248.022Z" fill="#212529"/>
<path d="M163.377 261.748H158.723V272.631H163.377V261.748Z" fill="#212529"/>
<path d="M163.377 275.474H158.723V286.357H163.377V275.474Z" fill="#212529"/>
<path d="M163.377 289.207H158.723V300.09H163.377V289.207Z" fill="#212529"/>
<path d="M140.709 120.052H97.498V306.183H140.709V120.052Z" fill="#6C757D"/>
<path d="M140.709 130.484H97.498V132.439H140.709V130.484Z" fill="#343A40"/>
<path d="M140.708 109.598H112.899V120.052H140.708V109.598Z" fill="#343A40"/>
<path d="M140.708 120.052H153.775V109.598H140.708V120.052Z" fill="#212529"/>
<path d="M109.684 138.188H102.13V149.071H109.684V138.188Z" fill="#212529"/>
<path d="M109.684 151.921H102.13V162.804H109.684V151.921Z" fill="#212529"/>
<path d="M109.684 165.647H102.13V176.53H109.684V165.647Z" fill="#212529"/>
<path d="M109.684 179.372H102.13V190.256H109.684V179.372Z" fill="#212529"/>
<path d="M109.684 193.105H102.13V203.988H109.684V193.105Z" fill="#212529"/>
<path d="M109.684 206.838H102.13V217.721H109.684V206.838Z" fill="#212529"/>
<path d="M109.684 220.557H102.13V231.44H109.684V220.557Z" fill="#212529"/>
<path d="M109.684 234.29H102.13V245.173H109.684V234.29Z" fill="#212529"/>
<path d="M109.684 248.022H102.13V258.906H109.684V248.022Z" fill="#212529"/>
<path d="M109.684 261.748H102.13V272.631H109.684V261.748Z" fill="#212529"/>
<path d="M109.684 275.474H102.13V286.357H109.684V275.474Z" fill="#212529"/>
<path d="M109.684 289.207H102.13V300.09H109.684V289.207Z" fill="#212529"/>
<path d="M109.684 138.188H102.13V149.071H109.684V138.188Z" fill="#212529"/>
<path d="M109.684 151.921H102.13V162.804H109.684V151.921Z" fill="#212529"/>
<path d="M109.684 165.647H102.13V176.53H109.684V165.647Z" fill="#212529"/>
<path d="M109.684 179.372H102.13V190.256H109.684V179.372Z" fill="#212529"/>
<path d="M109.684 193.105H102.13V203.988H109.684V193.105Z" fill="#212529"/>
<path d="M109.684 206.838H102.13V217.721H109.684V206.838Z" fill="#212529"/>
<path d="M109.684 220.557H102.13V231.44H109.684V220.557Z" fill="#212529"/>
<path d="M109.684 234.29H102.13V245.173H109.684V234.29Z" fill="#212529"/>
<path d="M109.684 248.022H102.13V258.906H109.684V248.022Z" fill="#212529"/>
<path d="M109.684 261.748H102.13V272.631H109.684V261.748Z" fill="#212529"/>
<path d="M109.684 275.474H102.13V286.357H109.684V275.474Z" fill="#212529"/>
<path d="M109.684 289.207H102.13V300.09H109.684V289.207Z" fill="#212529"/>
<path d="M122.193 138.188H114.639V149.071H122.193V138.188Z" fill="#212529"/>
<path d="M122.193 151.921H114.639V162.804H122.193V151.921Z" fill="#212529"/>
<path d="M122.193 165.647H114.639V176.53H122.193V165.647Z" fill="#212529"/>
<path d="M122.193 179.372H114.639V190.256H122.193V179.372Z" fill="#212529"/>
<path d="M122.193 193.105H114.639V203.988H122.193V193.105Z" fill="#212529"/>
<path d="M122.193 206.838H114.639V217.721H122.193V206.838Z" fill="#212529"/>
<path d="M122.193 220.557H114.639V231.44H122.193V220.557Z" fill="#212529"/>
<path d="M122.193 234.29H114.639V245.173H122.193V234.29Z" fill="#212529"/>
<path d="M122.193 248.022H114.639V258.906H122.193V248.022Z" fill="#212529"/>
<path d="M122.193 261.748H114.639V272.631H122.193V261.748Z" fill="#212529"/>
<path d="M122.193 275.474H114.639V286.357H122.193V275.474Z" fill="#212529"/>
<path d="M122.193 289.207H114.639V300.09H122.193V289.207Z" fill="#212529"/>
<path d="M122.193 138.188H114.639V149.071H122.193V138.188Z" fill="#212529"/>
<path d="M122.193 151.921H114.639V162.804H122.193V151.921Z" fill="#212529"/>
<path d="M122.193 165.647H114.639V176.53H122.193V165.647Z" fill="#212529"/>
<path d="M122.193 179.372H114.639V190.256H122.193V179.372Z" fill="#212529"/>
<path d="M122.193 193.105H114.639V203.988H122.193V193.105Z" fill="#212529"/>
<path d="M122.193 206.838H114.639V217.721H122.193V206.838Z" fill="#212529"/>
<path d="M122.193 220.557H114.639V231.44H122.193V220.557Z" fill="#212529"/>
<path d="M122.193 234.29H114.639V245.173H122.193V234.29Z" fill="#212529"/>
<path d="M122.193 248.022H114.639V258.906H122.193V248.022Z" fill="#212529"/>
<path d="M122.193 261.748H114.639V272.631H122.193V261.748Z" fill="#212529"/>
<path d="M122.193 275.474H114.639V286.357H122.193V275.474Z" fill="#212529"/>
<path d="M122.193 289.207H114.639V300.09H122.193V289.207Z" fill="#212529"/>
<path d="M134.709 138.188H127.155V149.071H134.709V138.188Z" fill="#212529"/>
<path d="M134.709 151.921H127.155V162.804H134.709V151.921Z" fill="#212529"/>
<path d="M134.709 165.647H127.155V176.53H134.709V165.647Z" fill="#212529"/>
<path d="M134.709 179.372H127.155V190.256H134.709V179.372Z" fill="#212529"/>
<path d="M134.709 193.105H127.155V203.988H134.709V193.105Z" fill="#212529"/>
<path d="M134.709 206.838H127.155V217.721H134.709V206.838Z" fill="#212529"/>
<path d="M134.709 220.557H127.155V231.44H134.709V220.557Z" fill="#212529"/>
<path d="M134.709 234.29H127.155V245.173H134.709V234.29Z" fill="#212529"/>
<path d="M134.709 248.022H127.155V258.906H134.709V248.022Z" fill="#212529"/>
<path d="M134.709 261.748H127.155V272.631H134.709V261.748Z" fill="#212529"/>
<path d="M134.709 275.474H127.155V286.357H134.709V275.474Z" fill="#212529"/>
<path d="M134.709 289.207H127.155V300.09H134.709V289.207Z" fill="#212529"/>
<path d="M134.709 138.188H127.155V149.071H134.709V138.188Z" fill="#212529"/>
<path d="M134.709 151.921H127.155V162.804H134.709V151.921Z" fill="#212529"/>
<path d="M134.709 165.647H127.155V176.53H134.709V165.647Z" fill="#212529"/>
<path d="M134.709 179.372H127.155V190.256H134.709V179.372Z" fill="#212529"/>
<path d="M134.709 193.105H127.155V203.988H134.709V193.105Z" fill="#212529"/>
<path d="M134.709 206.838H127.155V217.721H134.709V206.838Z" fill="#212529"/>
<path d="M134.709 220.557H127.155V231.44H134.709V220.557Z" fill="#212529"/>
<path d="M134.709 234.29H127.155V245.173H134.709V234.29Z" fill="#212529"/>
<path d="M134.709 248.022H127.155V258.906H134.709V248.022Z" fill="#212529"/>
<path d="M134.709 261.748H127.155V272.631H134.709V261.748Z" fill="#212529"/>
<path d="M134.709 275.474H127.155V286.357H134.709V275.474Z" fill="#212529"/>
<path d="M134.709 289.207H127.155V300.09H134.709V289.207Z" fill="#212529"/>
<path d="M81.1016 306.183H46.8481V198.733L81.1016 176.53V306.183Z" fill="#FFC107"/>
<path d="M76.6982 306.183H50.7002V201.74L76.6982 184.893V306.183Z" fill="#FFC107"/>
<path opacity="0.3" d="M76.6982 306.183H50.7002V201.74L76.6982 184.893V306.183Z" fill="#212529"/>
<g opacity="0.3">
<path d="M76.6981 203.544H53.6787V204.375H76.6981V203.544Z" fill="#212529"/>
<path d="M76.6981 210.332H53.6787V211.163H76.6981V210.332Z" fill="#212529"/>
<path d="M76.6981 217.12H53.6787V217.95H76.6981V217.12Z" fill="#212529"/>
<path d="M76.6981 223.908H53.6787V224.738H76.6981V223.908Z" fill="#212529"/>
<path d="M76.6981 230.695H53.6787V231.526H76.6981V230.695Z" fill="#212529"/>
<path d="M76.6981 237.483H53.6787V238.313H76.6981V237.483Z" fill="#212529"/>
<path d="M76.6981 244.271H53.6787V245.101H76.6981V244.271Z" fill="#212529"/>
<path d="M76.6981 251.058H53.6787V251.889H76.6981V251.058Z" fill="#212529"/>
<path d="M76.6981 257.846H53.6787V258.676H76.6981V257.846Z" fill="#212529"/>
<path d="M76.6981 264.634H53.6787V265.464H76.6981V264.634Z" fill="#212529"/>
<path d="M76.6981 271.421H53.6787V272.252H76.6981V271.421Z" fill="#212529"/>
<path d="M76.6981 278.209H53.6787V279.04H76.6981V278.209Z" fill="#212529"/>
<path d="M76.6981 284.997H53.6787V285.827H76.6981V284.997Z" fill="#212529"/>
<path d="M76.6981 291.784H53.6787V292.615H76.6981V291.784Z" fill="#212529"/>
<path d="M76.6981 298.572H53.6787V299.403H76.6981V298.572Z" fill="#212529"/>
<path d="M76.6981 305.36H53.6787V306.19H76.6981V305.36Z" fill="#212529"/>
<path d="M64.7769 195.661V306.19H65.6074V195.661H64.7769Z" fill="#212529"/>
</g>
<path d="M76.6983 184.893V188.63L53.6789 203.544V306.183H50.7075V201.733L76.6983 184.893Z" fill="#FFC107"/>
<path opacity="0.2" d="M76.6983 184.893V188.63L53.6789 203.544V306.183H50.7075V201.733L76.6983 184.893Z" fill="#212529"/>
<path d="M111.281 176.53H81.1016V306.183H111.281V176.53Z" fill="#FFC107"/>
<path opacity="0.2" d="M111.281 176.53H81.1016V306.183H111.281V176.53Z" fill="#212529"/>
<g opacity="0.2">
<path d="M108.352 184.893H84.0298V187.828H108.352V184.893Z" fill="#212529"/>
<path d="M108.352 191.537H84.0298V194.473H108.352V191.537Z" fill="#212529"/>
<path d="M108.352 198.189H84.0298V201.124H108.352V198.189Z" fill="#212529"/>
<path d="M108.352 204.833H84.0298V207.769H108.352V204.833Z" fill="#212529"/>
<path d="M108.352 211.485H84.0298V214.421H108.352V211.485Z" fill="#212529"/>
<path d="M108.352 218.137H84.0298V221.072H108.352V218.137Z" fill="#212529"/>
<path d="M108.352 224.781H84.0298V227.717H108.352V224.781Z" fill="#212529"/>
<path d="M108.352 231.433H84.0298V234.368H108.352V231.433Z" fill="#212529"/>
<path d="M108.352 238.077H84.0298V241.013H108.352V238.077Z" fill="#212529"/>
<path d="M108.352 244.729H84.0298V247.664H108.352V244.729Z" fill="#212529"/>
<path d="M108.352 251.38H84.0298V254.316H108.352V251.38Z" fill="#212529"/>
<path d="M108.352 258.025H84.0298V260.961H108.352V258.025Z" fill="#212529"/>
<path d="M108.352 264.677H84.0298V267.612H108.352V264.677Z" fill="#212529"/>
<path d="M108.352 271.321H84.0298V274.257H108.352V271.321Z" fill="#212529"/>
<path d="M108.352 277.973H84.0298V280.908H108.352V277.973Z" fill="#212529"/>
<path d="M108.352 284.624H84.0298V287.56H108.352V284.624Z" fill="#212529"/>
<path d="M108.352 291.269H84.0298V294.204H108.352V291.269Z" fill="#212529"/>
<path d="M108.352 297.92H84.0298V300.856H108.352V297.92Z" fill="#212529"/>
</g>
<path d="M236.058 168.912H208.907V306.19H236.058V168.912Z" fill="#FFC107"/>
<path opacity="0.2" d="M236.058 168.912H208.907V306.19H236.058V168.912Z" fill="#212529"/>
<path d="M208.907 168.912H237.683V164.415H208.907V168.912Z" fill="#FFC107"/>
<path d="M208.9 164.415H233.302V157.391H208.9V164.415Z" fill="#FFC107"/>
<path opacity="0.2" d="M208.9 164.415H233.302V157.391H208.9V164.415Z" fill="#212529"/>
<path d="M208.908 157.384H227.574V141.89H208.908V157.384Z" fill="#FFC107"/>
<path opacity="0.3" d="M208.908 157.384H227.574V141.89H208.908V157.384Z" fill="#212529"/>
<g opacity="0.3">
<path d="M215.187 174.11H211.507V188.551H215.187V174.11Z" fill="#212529"/>
</g>
<g opacity="0.3">
<path d="M215.187 193.785H211.507V208.227H215.187V193.785Z" fill="#212529"/>
</g>
<g opacity="0.3">
<path d="M215.187 213.454H211.507V227.896H215.187V213.454Z" fill="#212529"/>
</g>
<g opacity="0.3">
<path d="M215.187 233.122H211.507V247.564H215.187V233.122Z" fill="#212529"/>
</g>
<g opacity="0.3">
<path d="M215.187 252.798H211.507V267.24H215.187V252.798Z" fill="#212529"/>
</g>
<g opacity="0.3">
<path d="M215.187 272.467H211.507V286.908H215.187V272.467Z" fill="#212529"/>
</g>
<g opacity="0.3">
<path d="M221.28 174.11H217.6V188.551H221.28V174.11Z" fill="#212529"/>
</g>
<g opacity="0.3">
<path d="M221.28 193.785H217.6V208.227H221.28V193.785Z" fill="#212529"/>
</g>
<g opacity="0.3">
<path d="M221.28 213.454H217.6V227.896H221.28V213.454Z" fill="#212529"/>
</g>
<g opacity="0.3">
<path d="M221.28 233.122H217.6V247.564H221.28V233.122Z" fill="#212529"/>
</g>
<g opacity="0.3">
<path d="M221.28 252.798H217.6V267.24H221.28V252.798Z" fill="#212529"/>
</g>
<g opacity="0.3">
<path d="M221.28 272.467H217.6V286.908H221.28V272.467Z" fill="#212529"/>
</g>
<g opacity="0.3">
<path d="M227.366 174.11H223.686V188.551H227.366V174.11Z" fill="#212529"/>
</g>
<g opacity="0.3">
<path d="M227.366 193.785H223.686V208.227H227.366V193.785Z" fill="#212529"/>
</g>
<g opacity="0.3">
<path d="M227.366 213.454H223.686V227.896H227.366V213.454Z" fill="#212529"/>
</g>
<g opacity="0.3">
<path d="M227.366 233.122H223.686V247.564H227.366V233.122Z" fill="#212529"/>
</g>
<g opacity="0.3">
<path d="M227.366 252.798H223.686V267.24H227.366V252.798Z" fill="#212529"/>
</g>
<g opacity="0.3">
<path d="M227.366 272.467H223.686V286.908H227.366V272.467Z" fill="#212529"/>
</g>
<g opacity="0.3">
<path d="M233.452 174.11H229.771V188.551H233.452V174.11Z" fill="#212529"/>
</g>
<g opacity="0.3">
<path d="M233.452 193.785H229.771V208.227H233.452V193.785Z" fill="#212529"/>
</g>
<g opacity="0.3">
<path d="M233.452 213.454H229.771V227.896H233.452V213.454Z" fill="#212529"/>
</g>
<g opacity="0.3">
<path d="M233.452 233.122H229.771V247.564H233.452V233.122Z" fill="#212529"/>
</g>
<g opacity="0.3">
<path d="M233.452 252.798H229.771V267.24H233.452V252.798Z" fill="#212529"/>
</g>
<g opacity="0.3">
<path d="M233.452 272.467H229.771V286.908H233.452V272.467Z" fill="#212529"/>
</g>
<path d="M208.9 168.912H153.246V306.19H208.9V168.912Z" fill="#FFC107"/>
<path d="M208.908 157.384H155.917V164.408H208.908V157.384Z" fill="#FFC107"/>
<path d="M208.907 141.897H169.033V157.391H208.907V141.897Z" fill="#FFC107"/>
<path opacity="0.2" d="M208.907 141.897H169.033V157.391H208.907V141.897Z" fill="#212529"/>
<path d="M208.907 164.408H151.584V168.904H208.907V164.408Z" fill="#FFC107"/>
<path opacity="0.2" d="M208.907 164.408H151.584V168.904H208.907V164.408Z" fill="#212529"/>
<g opacity="0.3">
<path d="M166.127 174.11H158.573V188.551H166.127V174.11Z" fill="#212529"/>
</g>
<g opacity="0.3">
<path d="M166.127 193.785H158.573V208.227H166.127V193.785Z" fill="#212529"/>
</g>
<g opacity="0.3">
<path d="M166.127 213.454H158.573V227.896H166.127V213.454Z" fill="#212529"/>
</g>
<g opacity="0.3">
<path d="M166.127 233.122H158.573V247.564H166.127V233.122Z" fill="#212529"/>
</g>
<g opacity="0.3">
<path d="M166.127 252.798H158.573V267.24H166.127V252.798Z" fill="#212529"/>
</g>
<g opacity="0.3">
<path d="M166.127 272.467H158.573V286.908H166.127V272.467Z" fill="#212529"/>
</g>
<g opacity="0.3">
<path d="M178.613 174.11H171.06V188.551H178.613V174.11Z" fill="#212529"/>
</g>
<g opacity="0.3">
<path d="M178.613 193.785H171.06V208.227H178.613V193.785Z" fill="#212529"/>
</g>
<g opacity="0.3">
<path d="M178.613 213.454H171.06V227.896H178.613V213.454Z" fill="#212529"/>
</g>
<g opacity="0.3">
<path d="M178.613 233.122H171.06V247.564H178.613V233.122Z" fill="#212529"/>
</g>
<g opacity="0.3">
<path d="M178.613 252.798H171.06V267.24H178.613V252.798Z" fill="#212529"/>
</g>
<g opacity="0.3">
<path d="M178.613 272.467H171.06V286.908H178.613V272.467Z" fill="#212529"/>
</g>
<g opacity="0.3">
<path d="M191.101 174.11H183.547V188.551H191.101V174.11Z" fill="#212529"/>
</g>
<g opacity="0.3">
<path d="M191.101 193.785H183.547V208.227H191.101V193.785Z" fill="#212529"/>
</g>
<g opacity="0.3">
<path d="M191.101 213.454H183.547V227.896H191.101V213.454Z" fill="#212529"/>
</g>
<g opacity="0.3">
<path d="M191.101 233.122H183.547V247.564H191.101V233.122Z" fill="#212529"/>
</g>
<g opacity="0.3">
<path d="M191.101 252.798H183.547V267.24H191.101V252.798Z" fill="#212529"/>
</g>
<g opacity="0.3">
<path d="M191.101 272.467H183.547V286.908H191.101V272.467Z" fill="#212529"/>
</g>
<g opacity="0.3">
<path d="M203.581 174.11H196.027V188.551H203.581V174.11Z" fill="#212529"/>
</g>
<g opacity="0.3">
<path d="M203.581 193.785H196.027V208.227H203.581V193.785Z" fill="#212529"/>
</g>
<g opacity="0.3">
<path d="M203.581 213.454H196.027V227.896H203.581V213.454Z" fill="#212529"/>
</g>
<g opacity="0.3">
<path d="M203.581 233.122H196.027V247.564H203.581V233.122Z" fill="#212529"/>
</g>
<g opacity="0.3">
<path d="M203.581 252.798H196.027V267.24H203.581V252.798Z" fill="#212529"/>
</g>
<g opacity="0.3">
<path d="M203.581 272.467H196.027V286.908H203.581V272.467Z" fill="#212529"/>
</g>
<path opacity="0.3" d="M191.1 292.579H171.06V306.183H191.1V292.579Z" fill="#212529"/>
<path d="M291.763 227.903H264.612V306.183H291.763V227.903Z" fill="#FFC107"/>
<path opacity="0.2" d="M291.763 227.903H264.612V306.183H291.763V227.903Z" fill="#212529"/>
<path d="M264.612 227.91H293.388V223.413H264.612V227.91Z" fill="#FFC107"/>
<path d="M264.612 223.406H289.014V216.382H264.612V223.406Z" fill="#FFC107"/>
<path opacity="0.2" d="M264.612 223.406H289.014V216.382H264.612V223.406Z" fill="#212529"/>
<g opacity="0.3">
<path d="M270.899 233.108H267.218V247.55H270.899V233.108Z" fill="#212529"/>
</g>
<g opacity="0.3">
<path d="M270.899 252.777H267.218V267.218H270.899V252.777Z" fill="#212529"/>
</g>
<g opacity="0.3">
<path d="M270.899 272.452H267.218V286.894H270.899V272.452Z" fill="#212529"/>
</g>
<g opacity="0.3">
<path d="M276.984 233.108H273.304V247.55H276.984V233.108Z" fill="#212529"/>
</g>
<g opacity="0.3">
<path d="M276.984 252.777H273.304V267.218H276.984V252.777Z" fill="#212529"/>
</g>
<g opacity="0.3">
<path d="M276.984 272.452H273.304V286.894H276.984V272.452Z" fill="#212529"/>
</g>
<g opacity="0.3">
<path d="M283.07 233.108H279.39V247.55H283.07V233.108Z" fill="#212529"/>
</g>
<g opacity="0.3">
<path d="M283.07 252.777H279.39V267.218H283.07V252.777Z" fill="#212529"/>
</g>
<g opacity="0.3">
<path d="M283.07 272.452H279.39V286.894H283.07V272.452Z" fill="#212529"/>
</g>
<g opacity="0.3">
<path d="M289.157 233.108H285.477V247.55H289.157V233.108Z" fill="#212529"/>
</g>
<g opacity="0.3">
<path d="M289.157 252.777H285.477V267.218H289.157V252.777Z" fill="#212529"/>
</g>
<g opacity="0.3">
<path d="M289.157 272.452H285.477V286.894H289.157V272.452Z" fill="#212529"/>
</g>
<path d="M264.612 227.903H208.958V306.183H264.612V227.903Z" fill="#FFC107"/>
<path d="M264.612 216.382H211.621V223.406H264.612V216.382Z" fill="#FFC107"/>
<path d="M264.613 223.406H207.29V227.903H264.613V223.406Z" fill="#FFC107"/>
<path opacity="0.2" d="M264.613 223.406H207.29V227.903H264.613V223.406Z" fill="#212529"/>
<g opacity="0.3">
<path d="M221.831 233.108H214.277V247.55H221.831V233.108Z" fill="#212529"/>
</g>
<g opacity="0.3">
<path d="M221.831 252.777H214.277V267.218H221.831V252.777Z" fill="#212529"/>
</g>
<g opacity="0.3">
<path d="M221.831 272.452H214.277V286.894H221.831V272.452Z" fill="#212529"/>
</g>
<g opacity="0.3">
<path d="M234.318 233.108H226.764V247.55H234.318V233.108Z" fill="#212529"/>
</g>
<g opacity="0.3">
<path d="M234.318 252.777H226.764V267.218H234.318V252.777Z" fill="#212529"/>
</g>
<g opacity="0.3">
<path d="M234.318 272.452H226.764V286.894H234.318V272.452Z" fill="#212529"/>
</g>
<g opacity="0.3">
<path d="M246.805 233.108H239.251V247.55H246.805V233.108Z" fill="#212529"/>
</g>
<g opacity="0.3">
<path d="M246.805 252.777H239.251V267.218H246.805V252.777Z" fill="#212529"/>
</g>
<g opacity="0.3">
<path d="M246.805 272.452H239.251V286.894H246.805V272.452Z" fill="#212529"/>
</g>
<g opacity="0.3">
<path d="M259.293 233.108H251.739V247.55H259.293V233.108Z" fill="#212529"/>
</g>
<g opacity="0.3">
<path d="M259.293 252.777H251.739V267.218H259.293V252.777Z" fill="#212529"/>
</g>
<g opacity="0.3">
<path d="M259.293 272.452H251.739V286.894H259.293V272.452Z" fill="#212529"/>
</g>
<path d="M242.874 117.281C242.502 117.095 242.12 116.933 241.728 116.794C241.328 116.642 240.909 116.545 240.483 116.508C240.35 116.495 240.216 116.51 240.089 116.55C240.048 116.561 240.01 116.578 239.974 116.601L239.895 116.658L239.759 116.772C239.6 116.916 239.449 117.069 239.308 117.231C239.022 117.546 238.771 117.875 238.521 118.212L238.836 118.104C238.415 117.987 237.987 117.899 237.554 117.839C237.333 117.808 237.111 117.791 236.888 117.789C236.772 117.779 236.654 117.779 236.537 117.789C236.472 117.797 236.407 117.812 236.344 117.832C236.277 117.857 236.212 117.888 236.151 117.925C235.96 118.059 235.791 118.221 235.65 118.405C235.513 118.577 235.392 118.756 235.27 118.942C235.042 119.305 234.844 119.686 234.676 120.08C234.955 119.751 235.22 119.422 235.499 119.107C235.635 118.956 235.778 118.799 235.929 118.663C236.061 118.524 236.213 118.406 236.38 118.312C236.539 118.259 236.708 118.242 236.874 118.262C237.076 118.276 237.277 118.305 237.475 118.348C237.876 118.419 238.284 118.519 238.678 118.62L238.872 118.677L238.986 118.512C239.215 118.183 239.466 117.861 239.702 117.546C239.824 117.388 239.953 117.238 240.082 117.102L240.182 117.009L240.232 116.973C240.303 116.947 240.378 116.932 240.454 116.93C240.85 116.931 241.246 116.969 241.635 117.045C242.065 117.123 242.466 117.209 242.874 117.281Z" fill="#212529"/>
<path d="M238.371 129.467C237.88 129.081 237.364 128.729 236.824 128.415C236.278 128.072 235.688 127.805 235.07 127.62C234.881 127.571 234.685 127.555 234.49 127.57C234.424 127.581 234.36 127.597 234.297 127.62L234.168 127.677L233.939 127.799C233.652 127.971 233.395 128.157 233.137 128.343C232.628 128.73 232.17 129.138 231.705 129.56L232.192 129.496C231.614 129.198 231.016 128.942 230.402 128.73C230.086 128.619 229.763 128.53 229.435 128.465C229.261 128.426 229.084 128.402 228.905 128.393C228.808 128.386 228.709 128.386 228.612 128.393C228.507 128.413 228.405 128.439 228.304 128.472C227.982 128.612 227.684 128.803 227.423 129.038C227.169 129.245 226.93 129.47 226.707 129.711C226.264 130.176 225.86 130.677 225.497 131.207C225.998 130.806 226.485 130.398 226.986 130.026C227.237 129.832 227.488 129.653 227.745 129.489C227.982 129.328 228.24 129.2 228.511 129.109C228.752 129.084 228.996 129.108 229.227 129.181C229.517 129.261 229.802 129.359 230.079 129.474C230.652 129.696 231.225 129.968 231.769 130.233L232.041 130.376L232.256 130.169C232.693 129.754 233.151 129.345 233.609 128.959C233.838 128.766 234.077 128.587 234.325 128.422C234.379 128.381 234.437 128.345 234.497 128.314L234.576 128.271C234.687 128.25 234.801 128.25 234.912 128.271C235.494 128.384 236.062 128.555 236.609 128.78C237.218 128.995 237.791 129.238 238.371 129.467Z" fill="#212529"/>
<path d="M113.608 101.278C113.271 101.032 112.92 100.808 112.555 100.605C112.182 100.391 111.782 100.227 111.367 100.118C111.239 100.096 111.108 100.096 110.98 100.118C110.937 100.112 110.894 100.112 110.851 100.118L110.765 100.161L110.615 100.247C110.429 100.369 110.257 100.498 110.092 100.627C109.763 100.892 109.462 101.178 109.161 101.472L109.483 101.414C109.089 101.228 108.683 101.071 108.266 100.942C108.053 100.873 107.835 100.821 107.615 100.784C107.499 100.765 107.381 100.753 107.264 100.748H107.071C107 100.766 106.931 100.787 106.863 100.813C106.65 100.909 106.456 101.043 106.29 101.207C106.129 101.35 105.976 101.503 105.832 101.665C105.545 101.986 105.287 102.331 105.059 102.696C105.381 102.417 105.696 102.13 106.025 101.872C106.19 101.744 106.347 101.615 106.519 101.5C106.674 101.389 106.843 101.298 107.02 101.228C107.188 101.203 107.359 101.215 107.522 101.264C107.717 101.309 107.908 101.369 108.094 101.443C108.481 101.579 108.868 101.744 109.24 101.915L109.426 101.994L109.562 101.858C109.841 101.565 110.142 101.285 110.436 101.02C110.579 100.888 110.73 100.764 110.887 100.648L111.001 100.569H111.052C111.125 100.553 111.2 100.553 111.273 100.569C111.664 100.637 112.047 100.74 112.419 100.877C112.827 100.956 113.214 101.135 113.608 101.278Z" fill="#212529"/>
<path d="M123.818 99.6243C123.467 99.121 123.082 98.6425 122.665 98.1923C122.245 97.7067 121.764 97.2782 121.233 96.9178C121.067 96.8149 120.886 96.74 120.696 96.6958H120.496H120.36L120.102 96.7459C119.772 96.8247 119.472 96.9249 119.171 97.0252C118.577 97.24 118.011 97.4977 117.438 97.7412L117.925 97.8199C117.457 97.3652 116.96 96.9418 116.436 96.5526C116.166 96.3564 115.883 96.1771 115.591 96.0156C115.436 95.9317 115.276 95.8576 115.111 95.7937C115.018 95.7623 114.922 95.7383 114.825 95.7221C114.72 95.715 114.615 95.715 114.51 95.7221C114.161 95.7636 113.821 95.8577 113.5 96.0013C113.192 96.1302 112.906 96.2805 112.62 96.4309C112.061 96.7505 111.527 97.1119 111.023 97.5121C111.624 97.2758 112.204 97.0252 112.799 96.7961C113.089 96.6858 113.385 96.5925 113.686 96.5168C113.958 96.4305 114.24 96.3823 114.524 96.3736C114.781 96.4196 115.025 96.5197 115.24 96.6672C115.488 96.833 115.727 97.0123 115.956 97.2042C116.436 97.5837 116.901 98.0061 117.345 98.4286L117.567 98.6434L117.832 98.5073C118.369 98.2352 118.928 97.9846 119.479 97.7913C119.746 97.6701 120.021 97.5672 120.302 97.4834L120.496 97.4262H120.589C120.701 97.4398 120.81 97.4738 120.911 97.5264C121.42 97.8102 121.9 98.1436 122.343 98.5216C122.866 98.808 123.338 99.2305 123.818 99.6243Z" fill="#212529"/>
<path d="M252.941 126.474C252.59 125.969 252.203 125.49 251.781 125.042C251.366 124.553 250.884 124.124 250.349 123.768C250.187 123.659 250.004 123.584 249.812 123.546C249.746 123.538 249.678 123.538 249.612 123.546H249.476C249.389 123.555 249.302 123.572 249.218 123.596C248.902 123.669 248.591 123.762 248.287 123.875C247.693 124.09 247.127 124.341 246.555 124.591L247.041 124.67C246.575 124.213 246.078 123.79 245.552 123.403C245.285 123.201 245.003 123.022 244.707 122.866C244.554 122.779 244.393 122.705 244.228 122.644C244.142 122.644 244.034 122.594 243.941 122.565C243.836 122.558 243.731 122.558 243.626 122.565C243.278 122.604 242.937 122.696 242.617 122.837C242.315 122.967 242.021 123.113 241.736 123.274C241.177 123.591 240.643 123.95 240.139 124.348C240.741 124.111 241.321 123.868 241.915 123.632C242.208 123.524 242.502 123.424 242.803 123.345C243.074 123.261 243.356 123.215 243.64 123.209C243.898 123.252 244.143 123.352 244.356 123.503C244.606 123.664 244.845 123.841 245.072 124.033C245.552 124.412 246.018 124.842 246.461 125.257L246.683 125.472L246.948 125.336C247.485 125.071 248.044 124.82 248.595 124.62C248.863 124.502 249.138 124.399 249.419 124.312C249.483 124.312 249.555 124.269 249.612 124.262H249.705C249.817 124.276 249.927 124.309 250.027 124.362C250.548 124.644 251.04 124.977 251.495 125.357C251.989 125.687 252.462 126.088 252.941 126.474Z" fill="#212529"/>
<path d="M63.3086 306.183C63.3086 306.183 62.7071 303.376 61.5042 302.94C60.3014 302.503 59.5639 303.77 59.5639 303.77C59.5639 303.77 59.2846 301.085 57.5734 300.276C55.8622 299.467 54.5877 301.121 54.5877 301.121C54.5877 301.121 53.2774 297.713 50.9361 297.713C48.5948 297.713 47.4205 302.725 47.4205 302.725C47.4205 302.725 46.0386 301.243 44.621 302.08C43.2033 302.918 43.189 306.212 43.189 306.212L63.3086 306.183Z" fill="#343A40"/>
<path d="M262.958 306.183C262.958 306.183 262.357 303.376 261.154 302.94C259.951 302.503 259.221 303.77 259.221 303.77C259.221 303.77 258.934 301.085 257.23 300.276C255.526 299.467 254.244 301.121 254.244 301.121C254.244 301.121 252.934 297.713 250.593 297.713C248.251 297.713 247.07 302.725 247.07 302.725C247.07 302.725 245.695 301.243 244.278 302.08C242.86 302.918 242.846 306.212 242.846 306.212L262.958 306.183Z" fill="#6C757D"/>
<path d="M116.493 306.183H95.3354C95.3354 306.183 96.0515 303.205 97.4333 302.99C97.8557 302.952 98.2794 303.045 98.6479 303.255C99.0163 303.464 99.312 303.782 99.4954 304.164C99.4954 304.164 99.431 300.004 102.052 299.295C104.672 298.586 106.863 302.259 106.863 302.259C106.863 302.259 108.51 300.169 110.744 300.298C112.978 300.426 113.558 303.878 113.558 303.878C113.558 303.878 115.591 302.696 116.493 306.183Z" fill="#343A40"/>
<path d="M44.5064 306.183H33.3726C33.3726 306.183 33.3726 304.529 34.4895 304.085C34.7872 303.957 35.1185 303.929 35.4335 304.005C35.7486 304.081 36.0304 304.258 36.2366 304.508C36.2366 304.508 36.6805 301.457 38.7211 301.457C40.7617 301.457 41.7426 304.085 41.7426 304.085C41.9157 303.834 42.1585 303.64 42.4409 303.525C42.7234 303.411 43.0332 303.381 43.3321 303.441C44.4634 303.584 44.5064 306.183 44.5064 306.183Z" fill="#6C757D"/>
<path d="M125.229 306.183H114.095C114.095 306.183 114.095 304.529 115.212 304.085C115.509 303.957 115.841 303.929 116.156 304.005C116.471 304.081 116.753 304.258 116.959 304.508C116.959 304.508 117.424 301.436 119.45 301.436C121.477 301.436 122.436 304.085 122.436 304.085C122.609 303.834 122.852 303.64 123.134 303.525C123.417 303.411 123.727 303.381 124.026 303.441C125.186 303.584 125.229 306.183 125.229 306.183Z" fill="#6C757D"/>
<path d="M308.381 306.183H297.248C297.248 306.183 297.248 304.529 298.365 304.085C298.662 303.957 298.993 303.929 299.309 304.005C299.624 304.081 299.905 304.258 300.112 304.508C300.112 304.508 300.555 301.457 302.596 301.457C304.637 301.457 305.618 304.085 305.618 304.085C305.79 303.834 306.033 303.638 306.315 303.524C306.598 303.409 306.908 303.38 307.207 303.441C308.338 303.584 308.381 306.183 308.381 306.183Z" fill="#6C757D"/>
<path d="M324.627 306.183H306.269C306.269 306.183 306.312 303.455 308.116 302.725C308.607 302.519 309.151 302.477 309.667 302.606C310.184 302.735 310.644 303.028 310.98 303.441C310.98 303.441 311.696 298.429 315.083 298.429C318.47 298.429 320.052 302.725 320.052 302.725C320.337 302.311 320.737 301.989 321.203 301.801C321.669 301.613 322.18 301.565 322.673 301.665C324.556 301.909 324.627 306.183 324.627 306.183Z" fill="#343A40"/>
<path d="M328.379 306.183H29.6138V311.388H328.379V306.183Z" fill="#C7C7C7"/>
<path d="M50.5637 306.183C51.0315 307.887 51.0315 309.685 50.5637 311.388C50.3121 310.545 50.1913 309.669 50.2057 308.789C50.1944 307.908 50.315 307.029 50.5637 306.183Z" fill="#212529"/>
<path d="M73.9123 306.183C74.161 307.029 74.2817 307.908 74.2703 308.789C74.2847 309.669 74.164 310.545 73.9123 311.388C73.4446 309.685 73.4446 307.887 73.9123 306.183Z" fill="#212529"/>
<path d="M97.2683 306.183C97.736 307.887 97.736 309.685 97.2683 311.388C97.0167 310.545 96.8959 309.669 96.9103 308.789C96.8989 307.908 97.0196 307.029 97.2683 306.183Z" fill="#212529"/>
<path d="M120.617 306.183C120.866 307.029 120.986 307.908 120.975 308.789C120.989 309.669 120.869 310.545 120.617 311.388C120.149 309.685 120.149 307.887 120.617 306.183Z" fill="#212529"/>
<path d="M143.973 306.183C144.441 307.887 144.441 309.685 143.973 311.388C143.721 310.545 143.601 309.669 143.615 308.789C143.604 307.908 143.724 307.029 143.973 306.183Z" fill="#212529"/>
<path d="M167.322 306.183C167.571 307.029 167.691 307.908 167.68 308.789C167.694 309.669 167.574 310.545 167.322 311.388C166.854 309.685 166.854 307.887 167.322 306.183Z" fill="#212529"/>
<path d="M190.678 306.183C191.145 307.887 191.145 309.685 190.678 311.388C190.426 310.545 190.305 309.669 190.32 308.789C190.308 307.908 190.429 307.029 190.678 306.183Z" fill="#212529"/>
<path d="M214.027 306.183C214.275 307.029 214.396 307.908 214.385 308.789C214.399 309.669 214.278 310.545 214.027 311.388C213.559 309.685 213.559 307.887 214.027 306.183Z" fill="#212529"/>
<path d="M237.383 306.183C237.85 307.887 237.85 309.685 237.383 311.388C237.131 310.545 237.01 309.669 237.025 308.789C237.013 307.908 237.134 307.029 237.383 306.183Z" fill="#212529"/>
<path d="M260.732 306.183C260.98 307.029 261.101 307.908 261.09 308.789C261.104 309.669 260.983 310.545 260.732 311.388C260.264 309.685 260.264 307.887 260.732 306.183Z" fill="#212529"/>
<path d="M284.087 306.183C284.555 307.887 284.555 309.685 284.087 311.388C283.835 310.545 283.715 309.669 283.729 308.789C283.718 307.908 283.838 307.029 284.087 306.183Z" fill="#212529"/>
<path d="M307.436 306.183C307.685 307.029 307.806 307.908 307.794 308.789C307.809 309.669 307.688 310.545 307.436 311.388C306.969 309.685 306.969 307.887 307.436 306.183Z" fill="#212529"/>
<path d="M31.8262 311.388L68.6214 311.217L105.417 311.152L179 311.03L252.583 311.152L289.379 311.217L326.174 311.388L289.379 311.567L252.583 311.632L179 311.746L105.417 311.625L68.6214 311.567L31.8262 311.388Z" fill="#212529"/>
<path opacity="0.1" d="M210.831 92.1485C219.603 83.377 219.603 69.1555 210.831 60.384C202.06 51.6124 187.838 51.6124 179.067 60.384C170.295 69.1555 170.295 83.377 179.067 92.1485C187.838 100.92 202.06 100.92 210.831 92.1485Z" fill="#FFC107"/>
<path d="M194.946 90.395C202.747 90.395 209.072 84.0703 209.072 76.2683C209.072 68.4664 202.747 62.1417 194.946 62.1417C187.144 62.1417 180.819 68.4664 180.819 76.2683C180.819 84.0703 187.144 90.395 194.946 90.395Z" fill="#FFC107"/>
</svg>
