<svg width="41" height="43" viewBox="0 0 41 43" fill="none" xmlns="http://www.w3.org/2000/svg">
<path d="M24.7293 18.8798C24.7099 18.9009 24.6913 18.9227 24.6734 18.9452C24.6716 18.9469 24.6694 18.949 24.6668 18.9514C24.659 18.9589 24.6493 18.9679 24.6361 18.9799C24.6172 18.9972 24.5988 19.015 24.581 19.0334L19.7876 23.9833L14.9884 19.0329L14.9746 19.0189C14.9528 18.9971 14.9317 18.9766 14.9177 18.963L14.9154 18.9608C14.9054 18.9511 14.8986 18.9444 14.8934 18.9393L14.6425 18.6156C14.5729 18.5259 14.4923 18.447 14.4034 18.3805C13.4748 17.2115 12.9747 15.789 12.9747 14.3169V14.3168C12.9742 10.6748 16.007 7.66797 19.7856 7.66797C23.5649 7.66797 26.5965 10.6762 26.5965 14.3169C26.5965 15.8629 26.0449 17.3556 25.0279 18.5537L24.7293 18.8798ZM14.9198 18.9737L14.9132 18.965C14.9153 18.9678 14.9175 18.9707 14.9198 18.9737Z" stroke="#6C4AF2" stroke-width="2.5" stroke-linejoin="round"/>
<path d="M9.72463 23.3619L9.95507 23.6049C10.0131 23.6667 10.0703 23.7285 10.1292 23.7851H10.131L19.3774 33.4178C19.7711 33.828 20.427 33.8278 20.8205 33.4175L30.0591 23.7851C30.0743 23.7753 30.0832 23.7621 30.0958 23.7471L30.2753 23.5616L30.462 23.3611L30.47 23.3566C32.8664 20.7693 34.1884 17.4258 34.1884 13.9375C34.1884 6.25146 27.8681 0 20.0955 0C12.3247 0 6 6.25235 6 13.9375C6 17.4232 7.32014 20.7675 9.71838 23.3566L9.72463 23.3619ZM20.0928 2.43539C26.5069 2.43539 31.7223 7.59681 31.7223 13.9384C31.7223 16.6397 30.7621 19.2402 29.0078 21.3134L28.555 21.8125C28.488 21.9026 28.3987 21.9883 28.3067 22.0731L20.0964 30.631L11.8772 22.0731C11.7888 21.9839 11.6977 21.9026 11.6307 21.8125L11.2475 21.3134H11.1814C9.42362 19.2376 8.46344 16.6397 8.46344 13.9384C8.46254 7.59415 13.6806 2.43539 20.0928 2.43539Z" fill="#6C4AF2"/>
</svg>
