<svg width="32" height="32" viewBox="0 0 32 32" fill="none" xmlns="http://www.w3.org/2000/svg">
<path d="M10.676 3.18C8.77119 3.70497 6.8793 4.2758 5.00201 4.892C4.83059 4.94753 4.67821 5.05009 4.56223 5.18799C4.44625 5.32589 4.37133 5.4936 4.34601 5.672C3.23801 13.986 5.79801 20.052 8.85201 24.048C10.145 25.7568 11.6868 27.2622 13.426 28.514C14.118 29.002 14.73 29.354 15.212 29.58C15.452 29.694 15.648 29.77 15.798 29.816C15.8636 29.839 15.9312 29.8558 16 29.866C16.068 29.855 16.1349 29.8382 16.2 29.816C16.352 29.77 16.548 29.694 16.788 29.58C17.268 29.354 17.882 29 18.574 28.514C20.3132 27.2621 21.855 25.7568 23.148 24.048C26.202 20.054 28.762 13.986 27.654 5.672C27.6289 5.49351 27.5541 5.3257 27.4381 5.18776C27.3221 5.04982 27.1696 4.94732 26.998 4.892C25.696 4.466 23.498 3.772 21.324 3.182C19.104 2.58 17.062 2.134 16 2.134C14.94 2.134 12.896 2.58 10.676 3.182V3.18ZM10.144 1.12C12.314 0.53 14.62 0 16 0C17.38 0 19.686 0.53 21.856 1.12C24.076 1.72 26.314 2.43 27.63 2.86C28.1802 3.0417 28.668 3.37493 29.0374 3.8214C29.4067 4.26787 29.6426 4.80948 29.718 5.384C30.91 14.338 28.144 20.974 24.788 25.364C23.3649 27.242 21.668 28.8957 19.754 30.27C19.0922 30.7456 18.391 31.1637 17.658 31.52C17.098 31.784 16.496 32 16 32C15.504 32 14.904 31.784 14.342 31.52C13.609 31.1638 12.9078 30.7456 12.246 30.27C10.3321 28.8957 8.63517 27.2419 7.21201 25.364C3.85601 20.974 1.09001 14.338 2.28201 5.384C2.35739 4.80948 2.5933 4.26787 2.96264 3.8214C3.33199 3.37493 3.81979 3.0417 4.37001 2.86C6.28039 2.23362 8.20562 1.65345 10.144 1.12Z" fill="#198754"/>
<path d="M21.708 10.292C21.8011 10.3849 21.875 10.4952 21.9254 10.6167C21.9758 10.7382 22.0018 10.8685 22.0018 11C22.0018 11.1315 21.9758 11.2618 21.9254 11.3833C21.875 11.5047 21.8011 11.6151 21.708 11.708L15.708 17.708C15.6151 17.8011 15.5047 17.875 15.3832 17.9254C15.2618 17.9758 15.1315 18.0018 15 18.0018C14.8684 18.0018 14.7382 17.9758 14.6167 17.9254C14.4952 17.875 14.3849 17.8011 14.292 17.708L11.292 14.708C11.199 14.615 11.1253 14.5046 11.0749 14.3832C11.0246 14.2617 10.9987 14.1315 10.9987 14C10.9987 13.8685 11.0246 13.7383 11.0749 13.6168C11.1253 13.4953 11.199 13.385 11.292 13.292C11.385 13.199 11.4953 13.1253 11.6168 13.0749C11.7383 13.0246 11.8685 12.9987 12 12.9987C12.1315 12.9987 12.2617 13.0246 12.3831 13.0749C12.5046 13.1253 12.615 13.199 12.708 13.292L15 15.586L20.292 10.292C20.3849 10.1989 20.4952 10.125 20.6167 10.0746C20.7382 10.0241 20.8684 9.9982 21 9.9982C21.1315 9.9982 21.2618 10.0241 21.3832 10.0746C21.5047 10.125 21.6151 10.1989 21.708 10.292Z" fill="#198754"/>
</svg>
